<?xml version="1.0" encoding="UTF-8" standalone="no"?>
<!-- Created with Inkscape (http://www.inkscape.org/) -->

<svg
   xmlns:dc="http://purl.org/dc/elements/1.1/"
   xmlns:cc="http://creativecommons.org/ns#"
   xmlns:rdf="http://www.w3.org/1999/02/22-rdf-syntax-ns#"
   xmlns:svg="http://www.w3.org/2000/svg"
   xmlns="http://www.w3.org/2000/svg"
   xmlns:sodipodi="http://sodipodi.sourceforge.net/DTD/sodipodi-0.dtd"
   xmlns:inkscape="http://www.inkscape.org/namespaces/inkscape"
   width="389.85101mm"
   height="104.42974mm"
   viewBox="0 0 389.85101 104.42974"
   version="1.1"
   id="svg8"
   inkscape:version="0.92.4 5da689c313, 2019-01-14"
   sodipodi:docname="sw.svg">
  <defs
     id="defs2" />
  <sodipodi:namedview
     id="base"
     pagecolor="#ffffff"
     bordercolor="#666666"
     borderopacity="1.0"
     inkscape:pageopacity="0.0"
     inkscape:pageshadow="2"
     inkscape:zoom="0.24748737"
     inkscape:cx="321.57939"
     inkscape:cy="246.8597"
     inkscape:document-units="mm"
     inkscape:current-layer="layer1"
     showgrid="false"
     inkscape:window-width="1366"
     inkscape:window-height="715"
     inkscape:window-x="0"
     inkscape:window-y="0"
     inkscape:window-maximized="1"
     fit-margin-top="0"
     fit-margin-left="0"
     fit-margin-right="0"
     fit-margin-bottom="0" />
  <metadata
     id="metadata5">
    <rdf:RDF>
      <cc:Work
         rdf:about="">
        <dc:format>image/svg+xml</dc:format>
        <dc:type
           rdf:resource="http://purl.org/dc/dcmitype/StillImage" />
        <dc:title></dc:title>
      </cc:Work>
    </rdf:RDF>
  </metadata>
  <g
     inkscape:label="Camada 1"
     inkscape:groupmode="layer"
     id="layer1"
     transform="translate(79.913985,-97.375959)">
    <path
       style="fill:#000000;stroke-width:0.10359976"
       d="m 54.605608,201.62388 c 0.03145,-0.10006 3.277952,-11.09099 7.21443,-24.42428 3.936478,-13.33329 7.191533,-24.27749 7.233459,-24.32045 0.04192,-0.043 5.851269,-0.0663 12.909659,-0.0518 l 12.833431,0.0263 6.818053,24.34594 c 3.74994,13.39027 6.8185,24.40451 6.81905,24.4761 0.001,0.10356 -1.60205,0.12472 -7.84603,0.1036 l -7.846989,-0.0266 -1.24389,-3.39175 -1.243883,-3.39177 -8.512025,-0.001 -8.512022,-10e-4 -0.265972,0.6993 c -0.146285,0.38462 -0.727451,1.91142 -1.291475,3.39289 l -1.025502,2.6936 -8.048746,0.0265 c -7.635716,0.0252 -8.045808,0.0172 -7.991548,-0.1554 z m 32.95662,-18.66528 c -0.03456,-0.10889 -1.111493,-3.80352 -2.393178,-8.21028 -2.83971,-9.76367 -2.743411,-9.43995 -2.793318,-9.39004 -0.0224,0.0224 -1.256457,3.97788 -2.742383,8.79001 -1.485926,4.81211 -2.721583,8.80758 -2.745902,8.8788 -0.03501,0.10251 1.079454,0.1295 5.346702,0.1295 5.260197,0 5.389397,-0.005 5.328079,-0.19799 z m 28.228012,-5.65482 v -24.50192 h 17.50086 c 11.88945,0 17.75699,0.0356 18.29966,0.1111 1.88566,0.26227 4.20932,1.22831 6.00003,2.49442 1.13108,0.79973 3.03412,2.65679 3.80604,3.71406 2.27803,3.12013 3.19514,6.24295 2.89628,9.86204 -0.3939,4.76991 -2.1851,9.03799 -4.92638,11.73851 -1.44484,1.42337 -2.70333,2.12616 -4.23067,2.36257 -0.6784,0.105 -0.69612,0.11524 -0.52563,0.30363 0.5274,0.58278 2.28896,1.46072 3.75601,1.87196 0.76217,0.21365 1.04031,0.2208 11.96907,0.30768 6.15383,0.0489 11.79484,0.0948 12.53558,0.10186 1.63574,0.0157 2.3705,-0.1601 2.79931,-0.66972 0.23512,-0.27943 0.27111,-0.40228 0.2285,-0.78024 -0.0806,-0.71458 -0.67492,-1.47259 -2.82388,-3.60134 -1.0929,-1.08261 -2.33783,-2.41128 -2.7665,-2.95259 -2.97225,-3.75321 -4.3134,-7.24608 -4.59762,-11.974 -0.14235,-2.3681 0.51447,-4.83996 1.91711,-7.21468 1.65779,-2.80669 4.00767,-4.6734 6.9836,-5.54765 l 0.95307,-0.27999 17.48246,-0.0294 17.48246,-0.0295 v 7.30088 7.30086 l -11.62907,0.038 c -11.99954,0.0393 -11.99734,0.0392 -12.95711,0.45851 -0.38993,0.17036 -0.69216,0.57466 -0.69216,0.92589 0,0.37596 0.4569,1.09539 1.22424,1.92766 1.22262,1.32609 7.3387,8.59441 8.11738,9.64666 1.71689,2.32006 2.25843,4.04521 2.2607,7.2018 0.003,3.66291 -1.18369,6.6669 -3.68147,9.32206 -2.16724,2.30378 -5.62484,4.16321 -8.59962,4.6247 -0.87856,0.1363 -3.94242,0.17871 -20.76638,0.28749 -10.85467,0.0702 -20.52829,0.0966 -21.49695,0.0587 -1.91101,-0.0748 -2.57976,-0.20654 -3.58863,-0.70709 -2.11436,-1.04904 -6.75586,-5.65372 -13.49057,-13.38354 l -1.77596,-2.03836 -0.0518,8.09895 -0.0518,8.09895 -8.78008,0.0265 -8.78008,0.0265 z m 29.93893,-3.42541 c 0.3696,-0.0871 0.86536,-0.27171 1.1017,-0.41021 2.79863,-1.6401 2.39315,-6.47232 -0.66331,-7.90487 l -0.59239,-0.27766 -6.08649,-0.0291 -6.08648,-0.0291 v 4.40617 4.40616 l 5.82749,-0.002 c 4.86271,-0.001 5.93874,-0.0278 6.49948,-0.15991 z M 0.75026629,200.63905 c -0.501876,-1.662 -14.14893629,-47.96236 -14.14893629,-48.00307 0,-0.0227 4.0504953,-0.0413 9.0010983,-0.0413 8.485274,0 9.003823,0.0104 9.048695,0.1813 0.748039,2.8493 4.488235,15.95226 4.532897,15.88 0.03463,-0.056 0.9933247,-3.69227 2.1304167,-8.08049 l 2.067433,-7.97858 9.480033,-0.001 9.480032,-0.001 2.423794,8.0823 c 1.333088,4.44527 2.446465,8.05963 2.474177,8.03191 0.02773,-0.0277 1.131347,-3.65308 2.452525,-8.05639 l 2.402142,-8.00601 7.84875,-0.0266 c 6.26472,-0.0212 7.83933,0 7.802065,0.1036 -0.02567,0.0716 -3.258053,11.07417 -7.183064,24.45019 l -7.136376,24.31979 h -7.167375 -7.16737 l -0.07415,-0.2331 c -0.04078,-0.12821 -1.46152,-5.33798 -3.157195,-11.57728 -1.695676,-6.23929 -3.108587,-11.27424 -3.139799,-11.18877 -0.09859,0.26999 -7.007191,22.89575 -7.007191,22.94869 0,0.0278 -3.308513,0.0505 -7.3522537,0.0505 H 1.0083593 Z M -13.39867,138.19257 v -8.18988 l 17.9486613,0.0587 c 9.8717637,0.0323 18.6712667,0.0684 19.5544547,0.0802 1.322747,0.0177 1.701439,-0.0116 2.148383,-0.16656 0.664432,-0.23035 0.95961,-0.57604 0.95961,-1.12384 0,-0.80526 -0.407473,-1.3371 -2.961832,-3.86587 -3.145927,-3.1144 -4.896369,-5.61905 -5.990883,-8.57215 -1.056272,-2.84991 -1.527262,-6.78036 -1.05843,-8.83261 0.266626,-1.1671 0.915459,-2.78222 1.525503,-3.79738 2.251351,-3.7464 5.515877,-5.916637 9.479729,-6.302072 0.634345,-0.06168 14.365796,-0.100797 35.965131,-0.102449 l 34.939023,-0.0027 v 7.355581 7.35558 H 88.336302 77.561928 v 17.14575 17.14576 h -7.977184 -7.97718 v -17.14955 -17.14956 l -11.629073,0.0317 c -10.887214,0.0297 -11.664564,0.0436 -12.185379,0.2187 -1.40034,0.47077 -1.383721,1.21377 0.06217,2.77888 1.429189,1.54703 7.248063,8.52558 7.820992,9.37968 0.945178,1.40904 1.425088,2.87812 1.429182,4.37495 0.0026,0.90341 -0.188586,4.24951 -0.317107,5.55372 -0.502045,5.09463 -4.172488,9.6659 -9.09915,11.33233 -1.805422,0.61067 0.237552,0.56451 -26.560624,0.60024 l -24.527245,0.0327 z m 107.64446,8.16084 c 0.0023,-0.0146 3.255404,-11.02883 7.22898,-24.47608 l 7.22468,-24.449544 h 12.89257 12.89257 l 6.80918,24.294144 c 3.74504,13.36178 6.81152,24.37602 6.81438,24.47609 0.005,0.17221 -0.41476,0.18053 -7.83541,0.1554 l -7.84062,-0.0266 -1.24953,-3.3929 -1.24954,-3.39289 h -8.50607 -8.50607 l -1.28995,3.39289 -1.28994,3.3929 -8.04977,0.0265 c -4.427365,0.0146 -8.047824,0.0146 -8.04546,0 z m 33.02111,-18.7522 c -0.0248,-0.0712 -1.17981,-4.04556 -2.56668,-8.83187 -1.38686,-4.78631 -2.5522,-8.73851 -2.58964,-8.78266 -0.0558,-0.0659 -1.76257,5.35938 -5.11769,16.26774 l -0.45408,1.47629 h 5.38658 c 4.26426,0 5.3772,-0.027 5.34151,-0.1295 z m 27.06245,-5.72388 V 97.375986 l 17.37886,8.25e-4 c 10.77446,5.26e-4 17.71852,0.03977 18.27263,0.103267 4.99156,0.57199 10.21185,4.952882 12.12288,10.173602 1.14795,3.13606 1.051,7.00271 -0.27676,11.03775 -1.67996,5.10534 -4.96399,8.65127 -8.339,9.00403 -0.34072,0.0356 -0.61949,0.0978 -0.61949,0.13827 0,0.17794 0.50409,0.79592 0.88827,1.08894 0.23083,0.17607 0.73967,0.42516 1.13074,0.55354 1.59219,0.52269 1.85082,0.53241 14.16845,0.53306 l 11.47367,0.001 v 8.18999 8.18997 l -15.35866,-0.0407 c -16.62382,-0.044 -16.13159,-0.0272 -17.48592,-0.59892 -2.24888,-0.94935 -6.91023,-5.51869 -14.19107,-13.91094 l -1.50084,-1.73036 -0.0265,8.13466 -0.0265,8.13465 h -8.80535 -8.80535 z m 29.97353,-3.4183 c 1.26839,-0.33037 2.05547,-0.96866 2.58205,-2.09396 0.44433,-0.9495 0.51761,-2.26384 0.18692,-3.35257 -0.40805,-1.3434 -1.22379,-2.343 -2.33597,-2.86243 l -0.62159,-0.29031 -6.08649,-0.0291 -6.08649,-0.0291 v 4.40616 4.40616 h 5.88342 c 4.88715,0 5.98413,-0.0262 6.47815,-0.15491 z"
       id="path21"
       inkscape:connector-curvature="0" />
    <path
       style="fill:#000000;stroke-width:0.1115665"
       d="m -57.051741,175.73914 c -2.072183,-0.11262 -5.105237,-0.53741 -6.64018,-0.92998 -0.986537,-0.25231 -3.048763,-1.12732 -3.679257,-1.5611 -0.454986,-0.31304 -0.873283,-0.75004 -1.117257,-1.16722 -0.07764,-0.13277 -0.603661,-0.3109 -1.691547,-0.5728 -2.993238,-0.72062 -4.948675,-1.81262 -6.896315,-3.85119 -0.936887,-0.98063 -1.849728,-2.30795 -2.453031,-3.56683 -0.587864,-1.22667 -0.521992,-1.78301 0.336721,-2.84371 0.994461,-1.22839 2.16661,-4.03773 5.576763,-13.36611 1.45944,-3.99226 1.764104,-4.73078 2.094124,-5.07628 0.577992,-0.60509 0.635549,-0.78943 0.637773,-2.0426 0.0079,-4.45576 1.707957,-8.73865 4.620874,-11.64126 2.290606,-2.28251 5.385672,-3.83677 8.99936,-4.51925 1.133912,-0.21414 1.314202,-0.28089 1.662332,-0.61545 0.50314,-0.48352 1.28598,-0.66047 2.53271,-0.57248 0.99761,0.0704 1.2523,0.16256 1.7626,0.63782 0.26447,0.2463 0.54539,0.3504 1.3388,0.49612 6.89528,1.26639 11.60327,5.44388 13.2254,11.73512 0.39579,1.53501 0.66463,3.49019 0.66463,4.83357 v 0.9916 l 0.4455,0.51473 c 0.24502,0.2831 0.49101,0.59993 0.54665,0.70407 0.0556,0.10415 0.88936,2.34816 1.85272,4.98671 1.91605,5.24788 3.60753,9.57732 4.36914,11.18308 0.26883,0.5668 0.71713,1.3109 0.99623,1.65355 0.60496,0.74273 0.86685,1.4037 0.76806,1.93848 -0.19869,1.07558 -1.71736,3.4587 -3.06058,4.80273 -1.84248,1.84359 -3.72114,2.8698 -6.54641,3.57598 -0.95979,0.2399 -1.75685,0.45015 -1.77124,0.46723 -0.0144,0.0171 -0.10965,0.19521 -0.2117,0.39584 -0.30481,0.5993 -0.87585,0.959 -3.24561,2.04442 -1.11097,0.50885 -4.63149,1.12813 -7.5437,1.32696 -1.44983,0.099 -6.03033,0.12212 -7.57356,0.0383 z m -5.907786,-2.90978 c 0.0028,-0.046 0.04884,-1.06267 0.102103,-2.25922 0.09806,-2.20248 0.355559,-4.26848 0.848219,-6.80556 0.14894,-0.76702 0.270998,-1.5424 0.27124,-1.72306 l 4.19e-4,-0.32849 -0.285128,0.38427 c -0.496074,0.66856 -1.13437,1.90659 -1.607378,3.11765 -0.593734,1.52014 -1.67678,5.14124 -1.751858,5.85724 -0.05473,0.52164 -0.0343,0.58069 0.314674,0.91017 0.545956,0.51547 2.08961,1.13581 2.107698,0.847 z m 19.892796,-0.20914 c 0.39216,-0.16105 0.89755,-0.46187 1.1231,-0.6685 0.49714,-0.45544 0.5069,-0.35877 -0.33095,-3.27821 -0.88201,-3.07327 -1.71214,-5.10307 -2.6326,-6.43706 -0.47474,-0.68801 -0.51512,-0.50368 -0.21803,0.99519 0.64062,3.23213 0.89604,5.22733 0.97874,7.6453 0.0542,1.58602 0.10248,2.0361 0.21818,2.0361 0.0817,0 0.4694,-0.13177 0.86156,-0.29282 z m -10.00507,-5.54241 c 0.17345,-0.14129 1.96162,-1.47804 3.97371,-2.97056 3.29182,-2.44181 4.08694,-3.08849 3.29623,-2.68088 -0.14332,0.0739 -0.61201,0.39556 -1.04155,0.71482 -0.42953,0.31928 -1.96078,1.42511 -3.40278,2.4574 -1.44199,1.0323 -2.75007,1.99492 -2.90683,2.13916 -0.28836,0.26533 -0.55172,0.34379 -0.55172,0.16435 0,-0.0539 -1.38116,-1.0956 -3.06923,-2.315 -4.375227,-3.16051 -4.615913,-3.32712 -4.693783,-3.24925 -0.07912,0.0791 7.746643,5.97347 7.949693,5.98769 0.072,0.005 0.27281,-0.10643 0.44626,-0.24773 z m 0.65007,-1.60813 0.44626,-0.0775 -0.3347,-0.0754 c -0.46313,-0.10435 -2.22415,-0.11945 -2.47323,-0.0212 -0.16955,0.0669 -0.14735,0.0931 0.13034,0.15415 0.46449,0.10205 1.6953,0.11307 2.23133,0.02 z m 0.61362,-0.58943 c 0,-0.0694 -0.63222,-0.11157 -1.6735,-0.11157 -1.04129,0 -1.6735,0.0422 -1.6735,0.11157 0,0.0694 0.63221,0.11156 1.6735,0.11156 1.04128,0 1.6735,-0.0422 1.6735,-0.11156 z m 0.61361,-0.41467 0.44627,-0.0775 -0.3347,-0.0754 c -0.45679,-0.10291 -4.023,-0.1205 -4.69812,-0.0231 -0.508,0.0733 -0.52249,0.0838 -0.21081,0.15415 0.45129,0.1018 4.23786,0.11911 4.79736,0.0219 z m 0.8467,-0.59954 c -0.3425,-0.13694 -5.86629,-0.13693 -6.31346,0 -0.22005,0.0674 0.85001,0.10335 3.12386,0.10501 2.32856,0.002 3.37069,-0.0326 3.1896,-0.10501 z m -27.824983,-2.42119 c 1.776967,-3.08897 2.614035,-4.90538 3.506827,-7.60969 1.528016,-4.62843 2.906822,-7.86191 4.327355,-10.14819 2.478547,-3.98911 5.471113,-6.0447 8.802223,-6.04623 1.470178,-0.001 2.626133,0.25933 4.149936,0.93343 1.185302,0.52436 1.376482,0.57473 2.510252,0.66147 1.48028,0.11324 1.28687,0.11249 2.78916,0.0109 1.12373,-0.076 1.31317,-0.12316 2.24627,-0.559 1.68458,-0.78687 2.76031,-1.04141 4.39804,-1.04068 1.20739,4.2e-4 1.84058,0.11823 2.88957,0.53708 4.21291,1.68216 7.31116,6.44321 10.36711,15.93101 0.76581,2.37762 1.88108,4.76292 3.51635,7.52067 0.52459,0.88468 0.97341,1.66286 0.99737,1.72929 0.0913,0.25314 0.22289,-0.0673 0.22289,-0.54292 0,-0.35656 -0.0835,-0.61579 -0.29652,-0.92042 -0.16309,-0.23324 -0.47118,-0.67194 -0.68464,-0.97488 -0.82996,-1.17786 -3.4668,-7.76628 -6.20445,-15.50256 -0.635,-1.79441 -0.76038,-2.05513 -1.24161,-2.58167 -0.29441,-0.32213 -0.53529,-0.64127 -0.53529,-0.70919 0,-0.0679 -0.16906,-0.31191 -0.37568,-0.54218 -0.46542,-0.51872 -0.48436,-0.58225 -0.62518,-2.09655 -0.12214,-1.31345 -0.42824,-2.51488 -1.06927,-4.19688 -1.48004,-3.88346 -3.57026,-6.36228 -6.68784,-7.93117 -1.53816,-0.77408 -4.1896,-1.53449 -5.35049,-1.53449 h -0.50675 v 0.4383 c 0,0.55095 0.18951,0.74182 0.83222,0.8382 1.31771,0.1976 3.26884,1.10557 4.46297,2.07687 0.76605,0.6231 1.37799,1.30747 2.12638,2.37805 l 0.5181,0.74115 0.31127,-0.18387 c 0.43925,-0.25947 0.83585,-0.12417 1.2297,0.41953 0.56827,0.78446 1.39209,3.17027 1.26393,3.66035 -0.0969,0.37035 -0.50908,0.3875 -1.90634,0.0793 -2.03622,-0.44911 -2.89215,-0.55226 -3.98509,-0.48025 -1.59895,0.10534 -2.51577,0.44715 -4.23952,1.58052 -0.4909,0.32278 -1.0027,0.62024 -1.13735,0.66105 -0.52796,0.16001 -0.54814,-0.011 -0.7501,-6.35197 -0.10376,-3.25793 -0.24126,-6.08068 -0.30621,-6.28642 -0.16581,-0.52516 -0.71502,-0.75608 -1.25833,-0.52907 -0.30105,0.12578 -0.40751,0.25253 -0.49321,0.58722 -0.0601,0.23475 -0.19446,3.06257 -0.29854,6.28405 -0.20321,6.28973 -0.22374,6.46085 -0.75507,6.2931 -0.13465,-0.0425 -0.59626,-0.31414 -1.02578,-0.6036 -1.909607,-1.28692 -2.913098,-1.6153 -4.908935,-1.6064 -1.216012,0.006 -1.698942,0.0636 -2.988788,0.36036 -1.846688,0.42482 -2.030753,0.43264 -2.251545,0.0957 -0.150366,-0.22948 -0.150817,-0.32882 -0.0044,-0.89229 0.264765,-1.0165 0.81772,-2.3588 1.174721,-2.85162 0.393695,-0.54349 0.790468,-0.67899 1.229233,-0.4198 l 0.310797,0.18359 0.608777,-0.86522 c 1.075662,-1.52879 2.358791,-2.66569 3.873267,-3.43189 0.774467,-0.39181 1.965877,-0.79936 2.626343,-0.89841 0.64271,-0.0964 0.83222,-0.28725 0.83222,-0.8382 v -0.4383 h -0.50676 c -1.226888,0 -3.550328,0.67735 -5.350481,1.55982 -2.523429,1.23704 -4.405209,3.13581 -5.73997,5.79177 -1.112796,2.2143 -1.838092,4.51767 -2.016959,6.40539 -0.131705,1.39007 -0.201448,1.60988 -0.65943,2.07839 -0.187886,0.1922 -0.341611,0.42458 -0.341611,0.51638 0,0.0918 -0.178674,0.32379 -0.397054,0.51552 -0.530703,0.46598 -0.678514,0.78076 -1.673476,3.56415 -2.050619,5.73653 -4.131275,11.08078 -5.226517,13.42454 -0.273212,0.58466 -0.727499,1.35672 -1.009531,1.7157 -0.282033,0.35898 -0.554788,0.79915 -0.606123,0.97816 -0.09715,0.33874 -0.03992,1.0516 0.08372,1.04336 0.03904,-0.003 0.58243,-0.89373 1.207494,-1.9803 z m 28.038163,1.87744 0.72518,-0.0815 -0.72518,-0.0248 c -1.21948,-0.0418 -1.30251,-0.21469 -0.11157,-0.23231 0.70205,-0.0103 0.98455,-0.0481 0.83675,-0.11157 -0.28117,-0.12082 -7.822864,-0.12082 -8.200139,0 -0.185073,0.0593 0.09644,0.0957 0.836759,0.10829 1.23356,0.021 1.19365,0.19114 -0.0558,0.23783 l -0.725179,0.0271 0.725179,0.0731 c 1.00036,0.10077 5.80741,0.10363 6.69399,0.004 z m 1.72273,-0.88591 c 0.0741,-0.11985 -4.0062,-0.19473 -7.59072,-0.13929 -1.385599,0.0214 -2.499497,0.0836 -2.499497,0.13945 0,0.13384 10.007507,0.13368 10.090217,-1.1e-4 z m -1.61116,-0.47564 2.17554,-0.0199 -1.56193,-0.0786 c -2.20578,-0.111 -5.36178,-0.12001 -7.763875,-0.0221 l -2.053972,0.0837 2.454467,0.0665 c 1.34995,0.0366 2.9314,0.0494 3.51434,0.0285 0.58294,-0.0209 2.03887,-0.047 3.23543,-0.058 z m 2.95651,-0.53906 c -0.12272,-0.0528 -1.34856,-0.0994 -2.72409,-0.10372 -1.37552,-0.004 -2.46953,-0.0393 -2.43114,-0.0776 0.0384,-0.0384 1.0383,-0.10566 2.22202,-0.14949 1.5954,-0.0591 0.69455,-0.0795 -3.48186,-0.0789 -3.757929,4.2e-4 -4.956701,0.0249 -3.599871,0.0733 1.118831,0.0399 2.068541,0.10679 2.110471,0.14871 0.0419,0.0419 -0.999,0.0812 -2.313163,0.0874 -1.314162,0.006 -2.514894,0.0513 -2.6683,0.10045 -0.153406,0.0491 2.733384,0.0908 6.415073,0.0926 3.82818,0.002 6.59847,-0.0378 6.47086,-0.0926 z m -15.125363,-1.07492 c 0.2919,-0.37108 0.294895,-0.75804 0.0081,-1.04484 -0.476004,-0.476 -1.338797,-0.12765 -1.338797,0.54054 0,0.69388 0.91023,1.03883 1.330697,0.5043 z m 16.073683,0.12581 c 0,-0.14841 -0.86638,-0.16477 -7.382,-0.13946 -5.785875,0.0225 -7.392041,0.0588 -7.428466,0.16815 -0.03684,0.11064 1.488806,0.13946 7.381996,0.13946 6.54433,0 7.42847,-0.02 7.42847,-0.16815 z m 2.242,-0.0233 c 0.26547,-0.15682 0.32402,-0.26655 0.32402,-0.60728 0,-0.47727 -0.30028,-0.76325 -0.80144,-0.76325 -0.36001,0 -0.76048,0.38504 -0.76048,0.73118 0,0.33241 0.41281,0.83076 0.68817,0.83076 0.12414,0 0.37152,-0.0861 0.54973,-0.19141 z m -12.42032,-1.31392 c 0.0165,-0.013 0.0165,-1.15931 0,-2.54729 l -0.03,-2.52361 -0.55784,0.6942 -0.55783,0.69419 -0.03502,1.92011 -0.03502,1.92011 0.59287,-0.067 c 0.32607,-0.0368 0.60638,-0.0777 0.62289,-0.0907 z m 6.77992,-1.77665 c -0.0254,-2.03278 0.0322,-1.8509 -0.93839,-2.96575 l -0.33994,-0.39048 -0.004,2.5881 -0.004,2.58808 0.58572,0.0337 c 0.32215,0.0186 0.61698,0.0222 0.65518,0.008 0.0382,-0.0141 0.0591,-0.8519 0.0465,-1.86171 z m -9.097056,0.82751 c 0,-0.55225 -0.03045,-1.00409 -0.06761,-1.00409 -0.07375,0 -0.295027,0.26449 -1.018985,1.21793 -0.260146,0.3426 -0.473515,0.66057 -0.474159,0.70659 -0.0011,0.046 0.350261,0.0837 0.779792,0.0837 h 0.780964 z m 4.685796,-2.69001 v -3.69411 l -0.41837,0.078 c -0.82351,0.15361 -0.80886,0.083 -0.80886,3.90274 v 3.40745 h 0.61362 0.61361 z m 2.0082,0.25284 c 0,-3.85085 0.0286,-3.71389 -0.80886,-3.86931 l -0.41837,-0.0776 v 3.69411 3.69412 h 0.61361 0.61362 z m 5.06337,3.30181 c -0.22656,-0.38603 -1.42241,-1.86873 -1.50719,-1.86873 -0.0537,0 -0.0976,0.45184 -0.0976,1.00409 v 1.00411 h 0.84334 c 0.64393,0 0.82397,-0.033 0.76147,-0.13947 z m -13.60244,-1.45036 c 1.180882,-1.49807 4.73924,-6.22223 4.8681,-6.46302 0.0992,-0.18539 0.0608,-0.45185 -0.044,-0.30535 -1.27594,1.78327 -4.780324,6.36239 -5.393517,7.04761 -0.206079,0.23028 -0.374688,0.46875 -0.374688,0.52994 0,0.27664 0.271792,0.0437 0.944089,-0.80918 z m 13.60299,-0.76666 c -0.65608,-0.82091 -1.94425,-2.49666 -2.86262,-3.72389 -0.91837,-1.22723 -1.71407,-2.24808 -1.76825,-2.26855 -0.22525,-0.0851 0.10951,0.44829 1.07361,1.71071 0.56234,0.73634 1.64394,2.16718 2.40356,3.17965 1.48067,1.97355 2.25259,2.87654 2.31051,2.7028 0.0198,-0.0595 -0.50074,-0.77982 -1.15681,-1.60072 z m -13.100364,-3.08265 c 2.490353,-3.28167 3.376894,-4.53732 3.236574,-4.58409 -0.19645,-0.0655 -10.150047,1.80303 -10.150047,1.9054 0,0.15927 4.844667,5.08459 4.983657,5.06662 0.07178,-0.009 0.940196,-1.08385 1.929816,-2.38793 z m 17.417324,-0.18578 c 1.3752,-1.40626 2.45029,-2.5709 2.38908,-2.5881 -0.29038,-0.0816 -9.98261,-1.82797 -10.14509,-1.82797 -0.22162,0 0.10441,0.47506 2.60331,3.79326 2.15232,2.85799 2.46944,3.25431 2.57093,3.21288 0.0448,-0.0183 1.20657,-1.18382 2.58177,-2.59007 z m -18.306201,-5.03896 c 1.318991,-0.1839 2.318661,-0.4239 2.493365,-0.59861 0.166681,-0.16668 -0.178421,-0.1513 -1.405545,0.0627 -1.788018,0.31175 -3.439617,0.0612 -5.02502,-0.76217 -2.732712,-1.41929 -3.31572,-3.90144 -1.371973,-5.84123 2.203397,-2.1989 6.710395,-2.47936 9.535614,-0.59337 0.35881,0.23953 0.37144,0.2408 0.25636,0.0258 -0.46114,-0.86165 -2.704579,-1.75284 -4.761717,-1.89154 -1.238913,-0.0835 -2.630417,0.2125 -4.035383,0.85852 -1.878388,0.86372 -2.932366,2.54803 -2.936204,4.69222 -0.0028,1.45484 0.809009,2.39864 2.495342,2.90178 0.937272,0.27965 1.15678,0.44493 1.249859,0.9411 0.05413,0.28862 0.133484,0.37945 0.364776,0.41761 0.420533,0.0694 1.77499,-0.0224 3.140526,-0.21275 z m 17.724551,0.21859 c 0.28603,-0.0572 0.3682,-0.14437 0.46101,-0.48906 0.13811,-0.5129 0.25173,-0.61151 0.89231,-0.77444 2.19202,-0.55752 3.10326,-1.77697 2.79056,-3.7344 -0.30892,-1.93372 -1.16703,-3.1152 -2.8353,-3.90374 -1.55151,-0.73334 -2.25026,-0.89898 -3.74852,-0.88859 -1.98895,0.0138 -3.91584,0.63864 -4.80801,1.55913 -0.45296,0.46733 -0.33832,0.4835 0.34034,0.048 1.40411,-0.90101 4.13521,-1.27863 6.0296,-0.83368 1.02159,0.23994 2.41845,0.94685 3.02695,1.53184 0.81453,0.78306 1.12668,1.40777 1.18905,2.37966 0.0487,0.75842 0.024,0.88507 -0.30122,1.54568 -0.59519,1.20899 -2.03433,2.22912 -3.80321,2.69591 -0.90047,0.23762 -2.65138,0.26294 -3.8083,0.0551 -0.94213,-0.16928 -1.35771,-0.12187 -0.82172,0.0937 0.50139,0.20167 2.43239,0.56033 3.57013,0.66311 1.42137,0.1284 1.4405,0.12894 1.82633,0.0518 z M -53.856501,147.56 c 0.37882,-0.10159 0.55,-0.0902 0.95205,0.0633 0.5988,0.22869 0.65007,0.23048 0.65007,0.0227 0,-0.19853 -0.47361,-0.45806 -1.02442,-0.5614 -0.49582,-0.093 -1.43005,0.27557 -1.43005,0.5642 0,0.13103 0.0574,0.16343 0.19525,0.11029 0.10738,-0.0414 0.40308,-0.13102 0.6571,-0.19914 z m -6.718978,-0.86155 c 0.612548,-0.23289 0.02313,-0.68391 -1.166797,-0.89279 -0.396245,-0.0696 -1.264402,-0.27859 -1.929238,-0.46451 -0.664837,-0.18593 -1.240857,-0.30598 -1.280045,-0.2668 -0.16998,0.16998 0.305198,0.68156 0.910203,0.97991 1.219184,0.60125 2.804046,0.89582 3.465877,0.64419 z m 16.048738,-0.10843 c 0.46541,-0.11902 1.10216,-0.32653 1.415,-0.46111 0.59238,-0.25484 1.20276,-0.84773 1.04014,-1.01035 -0.0517,-0.0516 -0.56907,0.0361 -1.14984,0.19492 -0.58076,0.15886 -1.49478,0.37585 -2.03114,0.48222 -0.94192,0.18678 -1.42348,0.43744 -1.42348,0.74094 0,0.31698 1.01967,0.3423 2.14932,0.0534 z m -9.89282,-0.85516 c 0.82904,-0.16456 0.97374,-0.16456 1.7691,-9e-5 1.20788,0.2498 1.21857,0.24838 1.01991,-0.13579 -0.0896,-0.17321 -0.23804,-0.37733 -0.32994,-0.4536 -0.25441,-0.21114 -1.49645,-0.34789 -2.2382,-0.24643 -0.54055,0.0739 -0.71879,0.15481 -0.97621,0.4429 -0.30739,0.34403 -0.39952,0.57197 -0.23124,0.57216 0.046,4e-5 0.48998,-0.0806 0.98658,-0.17915 z m 0.93795,-1.88208 c 0.27612,0.002 0.67776,0.0266 0.89253,0.0558 0.36992,0.0502 0.39228,0.0344 0.42473,-0.30012 0.0278,-0.28611 -0.0145,-0.36872 -0.22313,-0.43568 -0.32078,-0.10297 -2.14311,-0.1024 -2.30997,0.001 -0.0676,0.0418 -0.12296,0.24559 -0.12296,0.45288 0,0.37477 0.003,0.37646 0.41837,0.30023 0.23011,-0.0422 0.6443,-0.0754 0.92043,-0.0738 z m -1.04771,-2.45521 c 0.48124,-0.20106 0.47548,-0.50184 -0.0122,-0.63588 -0.59069,-0.16236 -1.27677,0.11552 -1.07825,0.43672 0.0629,0.1017 0.44733,0.30878 0.66346,0.35734 0.0173,0.004 0.20944,-0.0673 0.42696,-0.15818 z m 3.02801,-0.0877 c 0.25588,-0.2002 0.14383,-0.40622 -0.29195,-0.53678 -0.82192,-0.24626 -1.49821,0.3739 -0.69193,0.6345 0.3943,0.12745 0.73998,0.0931 0.98388,-0.0977 z"
       id="path34"
       inkscape:connector-curvature="0" />
    <path
       style="fill:#000000;stroke-width:0.18922216"
       d="m 262.05118,169.98037 c -1.42464,-0.10384 -1.8769,-0.23705 -3.73242,-1.09931 -2.03414,-0.94526 -2.78182,-1.16296 -6.28368,-1.82959 -2.11835,-0.40326 -2.94541,-0.78937 -4.61759,-2.15576 -2.1344,-1.74408 -3.62671,-3.48278 -4.49746,-5.24005 -0.68073,-1.37376 -0.78137,-1.75103 -0.8668,-3.24947 l -0.0967,-1.69527 -1.8422,-0.0887 c -1.70616,-0.0822 -1.94541,-0.14439 -3.23976,-0.84256 -5.22726,-2.81953 -17.69224,-13.33554 -18.95076,-15.98767 -0.42181,-0.88891 -0.41217,-1.15905 0.0566,-1.58326 0.37262,-0.33722 0.4708,-0.3351 3.3773,0.0728 3.83174,0.53779 8.31216,0.6838 13.51956,0.44057 6.30105,-0.29433 9.24541,0.13892 11.9298,1.75538 0.61102,0.36795 1.13685,0.66899 1.1685,0.66899 0.0316,0 0.60179,-0.83021 1.26699,-1.84492 1.34723,-2.0551 3.16621,-4.12453 3.79806,-4.32101 0.22748,-0.0707 0.74378,-0.42494 1.14733,-0.7871 1.19052,-1.06845 2.18406,-1.41326 3.88634,-1.34875 1.40589,0.0533 1.49677,0.0307 2.19709,-0.5466 0.97163,-0.8009 2.15885,-1.18129 3.67108,-1.17624 1.37913,0.004 2.36516,0.36322 3.39976,1.23647 0.60375,0.50959 0.73102,0.53889 2.11307,0.48652 1.70671,-0.0647 2.69893,0.27928 3.89043,1.3486 0.40354,0.36216 0.91985,0.71636 1.14733,0.7871 0.63185,0.19648 2.45083,2.26591 3.79806,4.32101 0.66519,1.01471 1.23534,1.84492 1.26699,1.84492 0.0317,0 0.55747,-0.30104 1.1685,-0.66899 1.56914,-0.94489 3.77828,-1.59409 6.02434,-1.77036 1.04423,-0.082 4.19414,-0.0626 6.99979,0.0428 5.47309,0.20584 8.98698,0.0542 13.19582,-0.56951 2.14171,-0.31738 2.22565,-0.31661 2.6018,0.0238 0.21378,0.19347 0.38869,0.49218 0.38869,0.66383 0,1.78851 -9.4497,10.46366 -16.74616,15.37356 -3.02578,2.0361 -3.56573,2.25648 -5.81858,2.37476 l -1.84492,0.0969 v 1.18472 c 0,3.15965 -1.71126,5.96662 -5.53861,9.08498 -1.70725,1.39098 -2.83499,1.86581 -5.39989,2.27358 -2.56747,0.40816 -3.07948,0.56324 -5.37888,1.62911 -1.983,0.91921 -2.20161,0.97144 -4.8755,1.1649 -0.36425,0.0263 -1.39176,-0.005 -2.28334,-0.0702 z m 6.73007,-2.95307 c 2.1699,-1.01704 2.82002,-1.20503 5.73029,-1.65694 2.19513,-0.34088 2.95249,-0.70891 4.92558,-2.39357 3.52183,-3.00702 4.79369,-6.08325 3.97733,-9.61993 -0.21696,-0.9399 -0.2377,-0.96121 -1.21176,-1.24438 -1.24621,-0.36228 -1.13068,-0.3847 -1.40285,0.27236 -0.12768,0.30825 -0.6376,0.9397 -1.13316,1.40324 -2.31448,2.16493 -5.47384,2.70966 -7.88843,1.36012 -0.45152,-0.25236 -0.82095,-0.41632 -0.82095,-0.36434 0,0.052 0.24127,0.45045 0.53615,0.88548 0.29488,0.43505 1.0156,1.61127 1.6016,2.61384 0.63668,1.0893 1.41963,2.13463 1.94559,2.5976 0.88501,0.77901 1.02585,1.35083 0.33272,1.35083 -0.54998,0 -2.18087,-1.88636 -3.35371,-3.87906 -0.61253,-1.04072 -1.59176,-2.53085 -2.17605,-3.31139 -0.88,-1.17556 -1.07259,-1.34719 -1.12198,-0.99987 -0.0613,0.4308 -1.03217,1.37832 -1.41236,1.37832 -0.11715,0 -0.49449,0.27283 -0.83854,0.60629 -0.5969,0.57855 -0.70653,0.60984 -2.39517,0.68369 -1.90792,0.0834 -2.96132,-0.21098 -3.34945,-0.9362 -0.10413,-0.19459 -0.30753,-0.35378 -0.45199,-0.35378 -0.44102,0 -1.42659,-0.95433 -1.43413,-1.38868 -0.0114,-0.65646 -1.0671,0.68816 -3.12414,3.9792 -2.16384,3.46187 -3.62424,4.8928 -3.99842,3.91772 -0.0801,-0.20874 0.16013,-0.54028 0.76781,-1.05971 0.55323,-0.47289 1.28398,-1.43962 1.95163,-2.58187 0.58699,-1.00427 1.30852,-2.18188 1.6034,-2.61693 0.29489,-0.43503 0.53616,-0.8335 0.53616,-0.88548 0,-0.052 -0.36465,0.1093 -0.81034,0.3584 -1.83077,1.02324 -3.99778,1.00896 -6.06779,-0.04 -1.14203,-0.57871 -2.65179,-1.96267 -2.96441,-2.71742 -0.27217,-0.65707 -0.15665,-0.63464 -1.40286,-0.27236 -0.97405,0.28317 -0.9948,0.30447 -1.21175,1.24438 -0.91455,3.96207 0.74855,7.30492 5.31872,10.69061 1.14052,0.84493 1.47161,0.94537 5.53004,1.67748 1.1659,0.21032 2.32961,0.59732 3.68983,1.22707 1.09276,0.50591 2.11456,0.96695 2.27066,1.02451 0.15611,0.0576 1.51851,0.087 3.02756,0.0655 l 2.74372,-0.0392 z m -11.94774,-1.86421 c -0.0602,-0.15692 0.0288,-0.49633 0.19779,-0.75426 0.7736,-1.18065 2.21998,-1.51015 6.64095,-1.51286 4.15553,-0.003 5.57471,0.24876 6.48085,1.14764 0.67115,0.66576 0.7858,1.16188 0.31064,1.34422 -0.20129,0.0772 -0.45713,-0.0784 -0.75559,-0.45982 -0.68829,-0.87947 -1.82708,-1.08802 -5.9413,-1.08802 -4.08821,0 -5.28537,0.21507 -5.91154,1.06201 -0.44325,0.59954 -0.85186,0.70394 -1.0218,0.26109 z m -1.40031,-3.60326 c -0.62358,-0.75137 1.28441,-1.32244 5.44802,-1.63062 4.56181,-0.33765 10.33656,0.21962 11.20466,1.08127 0.24326,0.24146 0.24197,0.31011 -0.0106,0.56267 -0.25476,0.25476 -0.3516,0.25575 -0.84674,0.009 -1.06141,-0.5295 -3.32203,-0.75964 -7.46171,-0.75964 -4.13041,0 -6.40034,0.23016 -7.45405,0.75582 -0.66888,0.33368 -0.58611,0.3354 -0.8796,-0.0182 z m 9.99077,-5.96336 c 0.77346,-0.26962 1.27129,-1.2435 0.91258,-1.78525 -0.22792,-0.34423 -0.46025,-0.37844 -2.5697,-0.37844 -2.10944,0 -2.34177,0.0342 -2.56969,0.37844 -0.21061,0.31809 -0.20371,0.47503 0.0433,0.98401 0.16164,0.33305 0.51946,0.68822 0.79517,0.78926 0.68498,0.251 2.68242,0.25807 3.38834,0.012 z m -10.39303,-1.12752 0.69398,-0.37603 -0.75689,0.14298 c -0.41629,0.0787 -1.43809,0.14105 -2.27067,0.13869 -1.7197,-0.005 -3.03443,-0.49117 -4.36074,-1.61294 l -0.74826,-0.63285 0.75689,0.81025 c 0.80383,0.8605 2.09412,1.6145 3.26331,1.90694 0.98901,0.24737 2.5969,0.0702 3.42238,-0.37704 z m 22.18263,-0.11065 c 0.60472,-0.27139 1.43524,-0.86091 1.9025,-1.35044 l 0.82928,-0.8688 -0.86657,0.69054 c -1.4646,1.1671 -2.50272,1.53651 -4.33704,1.54331 -0.88461,0.003 -1.90641,-0.0616 -2.27066,-0.14418 -0.5611,-0.1272 -0.60559,-0.11512 -0.29119,0.0791 1.35124,0.83463 3.24409,0.85361 5.03368,0.0505 z m -16.98997,-0.63073 c 0.10642,-0.40695 -0.017,-0.62259 -0.26758,-0.4677 -0.21439,0.1325 -0.21075,0.83518 0.004,0.83518 0.0919,0 0.2104,-0.16536 0.26325,-0.36748 z m 7.51692,2.1e-4 c 0,-0.37652 -0.24667,-0.64754 -0.42608,-0.46812 -0.14841,0.1484 0.0645,0.83539 0.25893,0.83539 0.0919,0 0.16715,-0.16527 0.16715,-0.36727 z m -11.18259,-1.06443 c 0.56222,-0.25628 0.98797,-0.49991 0.94611,-0.54141 -0.0817,-0.081 -2.97103,-1.24366 -3.0906,-1.24366 -0.0394,0 -0.0262,0.3388 0.0293,0.75289 0.0695,0.51786 0.005,0.89975 -0.20723,1.22328 -0.16951,0.25872 -0.30821,0.50692 -0.30821,0.55155 0,0.16989 1.65153,-0.29636 2.63062,-0.74265 z m 16.75539,0.21419 c -0.22794,-0.34789 -0.29325,-0.71777 -0.22136,-1.25372 0.1177,-0.87757 0.17072,-0.87804 -1.92768,0.0172 l -1.21957,0.52027 0.79026,0.40316 c 0.75698,0.38618 2.70905,0.97921 2.83925,0.86254 0.0344,-0.0307 -0.0831,-0.27798 -0.2609,-0.54939 z m -22.41357,0.20502 c 0,-0.0365 -0.0902,-0.32514 -0.20047,-0.64143 -0.15447,-0.44313 -0.13498,-0.73178 0.085,-1.25819 0.19524,-0.46725 0.21766,-0.68311 0.071,-0.68311 -0.24306,0 -2.46848,0.59468 -2.58763,0.69146 -0.14843,0.12058 0.65022,0.88271 1.48659,1.41862 0.76745,0.49175 1.14559,0.64777 1.14559,0.47265 z m 26.87981,-0.47265 c 0.83637,-0.53591 1.63502,-1.29804 1.48659,-1.41862 -0.11915,-0.0968 -2.34458,-0.69146 -2.58764,-0.69146 -0.14669,0 -0.12427,0.21586 0.071,0.68311 0.21995,0.52641 0.23944,0.81506 0.085,1.25819 -0.11025,0.31629 -0.20047,0.60493 -0.20047,0.64143 0,0.17512 0.37814,0.0191 1.1456,-0.47265 z m -24.57674,0.0366 c 0.43034,-0.38945 0.44372,-0.96827 0.0329,-1.42225 -0.42577,-0.47047 -1.11645,-0.43555 -1.47372,0.0745 -0.3893,0.5558 -0.37156,0.82701 0.0839,1.28245 0.46045,0.46044 0.8971,0.48145 1.35696,0.0653 z m 22.48503,-0.0653 c 0.45545,-0.45544 0.47319,-0.72665 0.0839,-1.28245 -0.34881,-0.49799 -0.95899,-0.54347 -1.44085,-0.10739 -0.43033,0.38945 -0.44371,0.96828 -0.0329,1.42224 0.40804,0.45088 0.91846,0.43898 1.38984,-0.0324 z m -33.74194,0.0734 c 0.54307,-0.14565 0.6538,-0.48577 0.38769,-1.1908 -0.47286,-1.25275 0.77659,-4.5876 2.39196,-6.38428 0.45433,-0.50532 1.15221,-1.6323 1.55086,-2.50441 l 0.72482,-1.58564 -0.46275,-0.37471 c -0.83746,-0.67813 -2.66866,-1.49467 -3.95223,-1.76229 -1.69715,-0.35387 -3.86352,-0.39851 -10.04106,-0.20692 -4.90258,0.15205 -6.77926,0.0871 -10.97488,-0.38005 l -1.04072,-0.11586 0.52987,0.56598 c 0.5238,0.5595 0.55958,0.56749 3.12216,0.69753 5.15654,0.26167 8.44931,0.92992 11.30945,2.29519 2.8858,1.37753 4.33383,3.03153 4.81474,5.49964 0.3579,1.83674 -0.29988,4.20544 -0.97918,3.52613 -0.14552,-0.1455 -0.13728,-0.48081 0.0288,-1.17318 1.2326,-5.13804 -4.33264,-8.64789 -14.56835,-9.18788 l -2.17606,-0.11481 1.13533,1.06141 c 5.07202,4.74175 13.16078,10.8497 14.92655,11.27127 0.72962,0.17419 2.71677,0.21285 3.273,0.0636 z m 48.5445,-0.8371 c 2.63937,-1.55702 9.27332,-6.78493 13.29693,-10.4787 l 1.13534,-1.04227 -0.8515,-0.007 c -0.46833,-0.004 -1.78815,0.0792 -2.93295,0.18478 -7.11616,0.65641 -11.19713,2.48309 -12.65379,5.66395 -0.37866,0.82686 -0.44959,1.92804 -0.26267,4.0779 0.0346,0.39829 -0.0346,0.56766 -0.23192,0.56766 -0.49066,0 -0.82744,-1.05052 -0.82832,-2.58376 -5.5e-4,-1.25047 0.0826,-1.61789 0.60953,-2.68828 1.8218,-3.70058 6.82781,-5.64962 15.67641,-6.10343 2.45889,-0.12611 2.50685,-0.13709 3.02756,-0.69332 l 0.52909,-0.56518 -1.04072,0.11586 c -4.19562,0.46711 -6.07231,0.5321 -10.97489,0.38005 -6.17754,-0.1916 -8.3439,-0.14696 -10.04106,0.20691 -1.28357,0.26764 -3.11477,1.08416 -3.95222,1.76229 l -0.46275,0.37471 0.72481,1.58564 c 0.40555,0.8872 1.10154,2.00241 1.58005,2.5318 1.59182,1.76102 2.83502,5.10578 2.36278,6.35689 -0.43025,1.13987 -0.11056,1.3131 2.26273,1.22601 1.55586,-0.0571 1.73139,-0.10767 3.02756,-0.87231 z m -24.76212,-0.34485 1.10994,-0.12138 0.45415,-1.57628 c 0.24978,-0.86696 0.5835,-1.82643 0.7416,-2.13215 0.332,-0.64203 0.36015,-0.62247 -1.32163,-0.91886 -1.96736,-0.34672 -5.85203,-0.1966 -7.25691,0.28043 -0.1924,0.0653 -0.18315,0.19858 0.0443,0.63843 0.15809,0.30572 0.49176,1.26519 0.74147,2.13215 l 0.45404,1.57628 1.11005,0.11011 c 1.52385,0.15115 2.61522,0.15428 3.92299,0.0113 z m -18.75893,-1.86532 c 2.5491,-0.84244 2.8171,-0.89281 4.78189,-0.89882 1.80756,-0.006 2.29308,0.0656 3.68983,0.54014 0.88462,0.30058 1.93879,0.71242 2.34261,0.91522 l 0.73421,0.36872 -0.13112,-0.53677 c -0.31687,-1.29715 -1.03834,-2.51036 -1.84119,-3.0961 -2.15627,-1.57315 -5.06317,-2.57854 -6.91887,-2.39297 -1.98872,0.19887 -3.80286,1.63747 -4.78393,3.79362 -0.52909,1.16284 -0.84396,2.1994 -0.66806,2.1994 0.0518,0 1.30939,-0.4016 2.79463,-0.89244 z m 26.6836,-0.74304 c 2.1301,-0.45141 3.74955,-0.27426 6.93563,0.75868 1.49857,0.48584 2.75222,0.8558 2.78589,0.82213 0.13764,-0.13763 -0.38079,-1.62376 -0.92569,-2.65359 -1.07871,-2.03869 -3.08559,-3.34685 -5.13452,-3.34685 -1.68309,0 -4.41343,1.0596 -6.32614,2.45506 -0.79463,0.57974 -1.52467,1.79881 -1.83189,3.05904 l -0.12182,0.49972 1.62296,-0.65166 c 0.89263,-0.3584 2.24064,-0.78255 2.99558,-0.94253 z m -12.72444,-3.08647 c 1.67698,-0.26583 4.3428,-0.23502 6.05511,0.07 0.78055,0.13902 1.45128,0.22417 1.49051,0.18921 0.15699,-0.13989 0.38475,-1.79265 0.50628,-3.6738 0.15459,-2.39308 -0.12546,-4.94296 -0.76357,-6.95237 -0.32378,-1.0196 -0.40233,-1.51839 -0.26515,-1.68369 0.32035,-0.386 0.64631,-0.10759 0.98054,0.8375 0.8676,2.45322 1.19694,5.66093 0.89634,8.73023 -0.10624,1.08482 -0.17248,1.99085 -0.1472,2.0134 0.0253,0.0225 0.62074,-0.30379 1.32322,-0.7252 l 1.27725,-0.76619 5.5e-4,-1.81487 c 10e-4,-2.73038 0.35469,-6.11805 0.67269,-6.4427 0.20144,-0.20564 0.32465,-0.22115 0.4848,-0.061 0.16007,0.16006 0.16028,0.73606 5.5e-4,2.26255 -0.11764,1.12631 -0.21366,2.87346 -0.21337,3.88256 l 5.5e-4,1.83473 1.08802,-0.39392 c 0.79696,-0.28855 1.58131,-0.39971 2.93191,-0.41557 1.01414,-0.0119 1.84436,-0.0868 1.84492,-0.16642 0.002,-0.2359 -1.12326,-2.18618 -2.37227,-4.11271 -1.47851,-2.28053 -2.64046,-3.59522 -3.17753,-3.59523 -0.24143,0 -0.62681,-0.27215 -0.93845,-0.66273 -1.01516,-1.27228 -2.60827,-1.7129 -4.3291,-1.19732 -0.72436,0.21702 -0.75462,0.20623 -1.53574,-0.5471 -1.06762,-1.02973 -1.8178,-1.37729 -2.97276,-1.37729 -1.15497,0 -1.90515,0.34756 -2.97288,1.37729 -0.78112,0.75333 -0.81138,0.76412 -1.53573,0.5471 -1.71306,-0.51325 -3.16285,-0.11989 -4.34212,1.17811 -0.34076,0.37507 -0.78056,0.68195 -0.97733,0.68195 -0.47338,0 -1.67337,1.38271 -3.12012,3.59522 -1.23601,1.89022 -2.37953,3.86811 -2.37778,4.11271 5.5e-4,0.0796 0.83078,0.15196 1.84491,0.16071 1.32701,0.0114 2.14888,0.12257 2.93191,0.39638 l 1.08803,0.38046 v -1.71091 c 0,-0.941 -0.0947,-2.68084 -0.21046,-3.86629 -0.15513,-1.5887 -0.15477,-2.21107 0.001,-2.36719 0.15627,-0.15628 0.28263,-0.13951 0.48189,0.0639 0.318,0.32465 0.67171,3.71232 0.67268,6.4427 l 5.5e-4,1.81486 1.27725,0.7662 c 0.70249,0.4214 1.29794,0.74774 1.32323,0.72519 0.0253,-0.0225 -0.041,-0.92857 -0.1472,-2.01339 -0.3006,-3.0693 0.0287,-6.27701 0.89633,-8.73024 0.33424,-0.94508 0.6602,-1.22349 0.98055,-0.83749 0.13722,0.16534 0.0566,0.67062 -0.27248,1.70676 -0.7231,2.27704 -0.94714,4.83629 -0.67642,7.72673 0.25875,2.76269 0.32943,3.03404 0.75673,2.90521 0.16981,-0.0512 0.8622,-0.18081 1.53867,-0.28804 z"
       id="path47"
       inkscape:connector-curvature="0" />
  </g>
</svg>
